<svg xmlns="http://www.w3.org/2000/svg" version="1.1" xmlns:xlink="http://www.w3.org/1999/xlink" xmlns:svgjs="http://svgjs.dev/svgjs" viewBox="0 0 800 800"><defs><linearGradient x1="50%" y1="0%" x2="50%" y2="100%" id="uundulate-grad"><stop stop-color="hsl(0, 0%, 93%)" stop-opacity="1" offset="45%"></stop><stop stop-color="hsl(0, 0%, 93%)" stop-opacity="1" offset="100%"></stop></linearGradient></defs><g stroke-width="1" stroke="url(#uundulate-grad)" fill="none"><path d="M642.9811053760441 309.62835403924896C694.4818427258311 540.5532389712653 790.7974327880156 858.4465924121537 709.760667901522 944.6306967692815C628.7239030150286 1030.8148011264095 387.612252144262 814.7202345716073 254.004633920875 723.3120549534633C120.39701569748792 631.9038753353193 91.35571059372234 608.6051276151559 68.444100429265 505.8714346021891C45.532490264807734 403.1377415892223 61.92202425788122 369.70703380509485 144.02890513148105 230.19032849122289C226.13578600508094 90.67362317735092 358.6087535715935 -180.35833956023413 462.55712862254427 -163.8087509043953C566.505503673495 -147.2591622485565 591.4803680262568 78.70346910723288 642.9811053760441 309.62835403924896C694.4818427258311 540.5532389712653 790.7974327880156 858.4465924121537 709.760667901522 944.6306967692815 "></path><path d="M631.9365082899702 313.73601741210985C681.096303032949 534.164316665398 773.0339117286703 837.6079722226095 695.6806361551993 919.8746172907772C618.3273605817283 1002.1412623589447 388.17533020508745 795.8691761020882 260.64078553730894 708.6159137393142C133.10624086953032 621.3626513765403 105.38499508866323 599.1229376436572 83.51482174986307 501.0589579494617C61.64464841106292 402.9949782552661 77.28920358626942 371.08384809768995 155.66395351106928 237.90881120717586C234.03870343586914 104.73377431666165 360.4901724766312 -153.97855375103313 459.7136213889023 -138.18121912500516C558.9370703011735 -122.38388449897718 582.7767135469916 93.30771815882167 631.9365082899702 313.73601741210985C681.096303032949 534.164316665398 773.0339117286703 837.6079722226095 695.6806361551993 919.8746172907772 "></path><path d="M620.8919112038965 317.84392492559573C667.7107633400667 527.775638500156 755.270390669325 816.7695961736908 681.6006044088765 895.118781952898C607.9308181484279 973.4679677321053 388.738408265913 777.0183617731943 267.2769371537429 693.9200166657906C145.8154660415728 610.8216715583867 119.41427958360407 589.6409918127838 98.58554307046109 496.2467254373595C77.7568065573181 402.85245906193506 92.65638291465763 372.46090653091005 167.2990018906575 245.62753806375372C241.94162086665733 118.79416959659738 362.37159138166885 -127.59852380120714 456.87011415526035 -112.55344320499006C551.3686369288521 -97.50836260877293 574.0730590677264 107.91221135103558 620.8919112038965 317.84392492559573C667.7107633400667 527.775638500156 755.270390669325 816.7695961736908 681.6006044088765 895.118781952898 "></path><path d="M609.8473141178229 321.951710368769C654.3252236471845 521.3868382646011 737.50686960998 795.9310980544592 667.5205726625538 870.3628245447062C597.5342757151277 944.7945510349532 389.3014863267383 758.1674253739877 273.91308877017684 679.2239975219541C158.52469121361526 600.2805696699206 133.44356407854497 580.1589239115978 113.65626439105915 491.43437085494463C93.86896470357334 402.7098177982914 108.02356224304583 373.83784289381776 178.93405027024573 253.3461428500192C249.84453829744552 132.85444280622062 364.2530102867065 -101.2186159216937 454.0266069216185 -86.9257893552874C543.8002035565305 -72.63296278888117 565.3694045884611 122.51658247293699 609.8473141178229 321.951710368769C654.3252236471845 521.3868382646011 737.50686960998 795.9310980544592 667.5205726625538 870.3628245447062 "></path><path d="M598.8027170317491 326.05946529436426C640.9396839543022 514.9980075114684 719.7433485506349 775.0925694176499 653.440540916231 845.6068366189363C587.1377332818273 916.1211038202227 389.86456438756386 739.3164584572028 280.5492403866108 664.5279478605396C171.23391638565772 589.7394372638761 147.47284857348586 570.6768254928335 128.72698571165716 486.62198575495154C109.98112284982852 402.5671460170697 123.39074157143403 375.21474873914724 190.56909864983396 261.06471711870654C257.74745572823383 146.91468549826573 366.1344291917442 -74.83873855975833 451.18309968797655 -61.298166023162935C536.231770184209 -47.75759348656749 556.6657501091959 137.12092307726016 598.8027170317491 326.05946529436426C640.9396839543022 514.9980075114684 719.7433485506349 775.0925694176499 653.440540916231 845.6068366189363 "></path><path d="M587.7581199456754 330.1673117726939C627.5541442614201 508.60926831106997 701.9798274912896 754.2541323335745 639.3605091699083 820.8509402459008C576.741190848527 887.4477481582269 390.4276424483893 720.4655830931526 287.18539200304474 649.8319897518595C183.9431415577002 579.1983964105663 161.50213306842676 561.1948186268037 143.79770703225523 481.80969220769293C126.0932809960837 402.4245657885823 138.75792089982224 376.5917461372112 202.2041470294222 268.78338294012815C265.650373159022 160.97501974304532 368.01584809678184 -48.45876964508858 448.3395924543347 -35.67045113830403C528.6633368118876 -22.882132631519482 547.9620956299307 151.7253552343177 587.7581199456754 330.1673117726939C627.5541442614201 508.60926831106997 701.9798274912896 754.2541323335745 639.3605091699083 820.8509402459008 "></path><path d="M576.7135076008126 334.2751582510234C614.1685893097487 502.2205291106716 684.2162911731555 733.4156952494995 625.2804621647965 796.0950438728653C566.3446331564377 858.774392496231 390.99070525042566 701.6147077291021 293.8215283606896 635.1360316431793C196.65235147095353 568.6573555572562 175.5314023045786 551.7128117607739 158.86841309406418 476.9973986604343C142.20542388354983 402.2819855600949 154.12508496942144 377.96874353527494 213.8391801502213 276.5020487615499C273.5532753310212 175.0353539878248 369.89725174303044 -22.078800730418834 445.4960699619037 -10.042736253445185C521.0948881807769 1.993328223528522 539.2584258918764 166.32978739137536 576.7135076008126 334.2751582510234C614.1685893097487 502.2205291106716 684.2162911731555 733.4156952494995 625.2804621647965 796.0950438728653 "></path><path d="M565.6689257735279 338.38300472935305C600.7830648756556 495.8317899102731 666.4527853725992 712.5772581654242 611.2004456772629 771.3391474998298C555.9481059819263 830.1010368342352 391.55379857004016 682.763832365052 300.45769523591264 620.4400735344991C209.36159190178506 558.1163147039463 189.56070205830855 542.2308048947441 173.9391496734513 472.1851051131757C158.31759728859407 402.1394053316076 169.4922795565987 379.3457409333389 225.47424378859859 284.2207145829716C281.4562080205985 189.0956882326043 371.77868590685705 4.301168184250855 442.6525779870508 15.584978631413719C513.5264700672444 26.868789078576583 530.5547866714003 180.9342195484329 565.6689257735279 338.38300472935305C600.7830648756556 495.8317899102731 666.4527853725992 712.5772581654242 611.2004456772629 771.3391474998298 "></path><path d="M554.6243592050323 342.4907291373702C587.3975557003514 489.4429286395622 648.6892948308323 691.7386990110366 597.1204444485182 746.5831290564815C545.5515940662042 801.4275591019268 392.1169071484437 663.9128349306891 307.0938773699247 605.7439933555064C222.07084759140565 547.5751517803237 203.59001707082757 532.7486759584017 189.00990151162745 467.37268949560473C174.42978595242738 401.99670303280766 184.85948940256503 380.72261626109025 237.10932268576494 291.9392583340807C289.35915596896484 203.15590040707127 373.66013532947284 30.6810150286081 439.80910127098696 41.21257144596012C505.9580672125011 51.74412786331209 521.8511627097132 195.538529635178 554.6243592050323 342.4907291373702C587.3975557003514 489.4429286395622 648.6892948308323 691.7386990110366 597.1204444485182 746.5831290564815 "></path><path d="M543.5797316013804 346.59851458054345C574.011985489891 483.05412840400754 630.925743253909 670.9002008918052 583.0403821846173 721.8271716482899C535.1550211153258 772.7541424047747 392.679954691691 645.0618985314825 313.72999846878054 591.0479742116701C234.78004224587 537.0340498918576 217.61927104819029 523.2666080572158 204.0805923146474 462.5603349131899C190.54191358110444 401.854061769164 200.2266382133751 382.09955262399785 248.74434054777504 299.6578631203462C297.26204288217497 217.21617361669462 375.5415237169324 57.0609229081216 436.9655635197669 66.84022529566272C498.3896033226015 76.61952768320384 513.1474777128698 210.14290075707936 543.5797316013804 346.59851458054345C574.011985489891 483.05412840400754 630.925743253909 670.9002008918052 583.0403821846173 721.8271716482899 "></path><path d="M532.5351497740958 350.7063915764511C560.6264610557978 476.66541972118716 613.1622374533529 650.0617943253081 568.9603656970837 697.0713057928325C524.7584939408146 744.0808172603568 393.2430480113055 626.2110536850103 320.36616534400355 576.352046620568C247.48928267670146 526.4930395561257 231.64857080192024 513.784631708764 219.15132889403446 457.7480718835093C206.65408698614868 401.7115120582547 215.59383280055238 383.4765805396398 260.3794041861523 307.376559459346C305.1649755717522 231.27653837905217 377.4229578807591 83.44092234036947 434.1220715449141 92.46797069809975C490.821185209069 101.49501905582997 504.44383849239364 224.7473634317151 532.5351497740958 350.7063915764511C560.6264610557978 476.66541972118716 613.1622374533529 650.0617943253081 568.9603656970837 697.0713057928325 "></path><path d="M521.4905221704439 354.8141770196245C547.2408908453374 470.27661948563264 595.3986858764297 629.2232962060768 554.8803034331829 672.3153483846407C514.3619209899362 715.4074005632048 393.80609555455294 607.3601172858037 327.0022864428594 561.6560274767317C260.1984773311658 515.9519376676596 245.67782477928301 504.30256380757794 234.2220196970544 452.93571730109454C222.76621461482574 401.56887079461114 230.96098161136246 384.8535169025474 272.01442204816243 315.0951642456114C313.06786248496235 245.33681158867546 379.30434626821864 109.82083021988296 431.278533793694 118.09562454780234C483.2527213191694 126.37041887572178 495.7401534955502 239.35173455361644 521.4905221704439 354.8141770196245C547.2408908453374 470.27661948563264 595.3986858764297 629.2232962060768 554.8803034331829 672.3153483846407 "></path><path d="M510.4459556019483 358.921992980376C533.8553816700334 463.8878497676561 577.6351953346625 608.3848286044235 540.8003022044383 647.5594214940271C503.965409074214 686.7340143836308 394.3692041329565 588.5092114041753 333.63846857687145 546.9600388504734C272.9077330207864 505.4108662967715 259.70713979180204 494.82052642397 249.29277153523054 448.1233932362579C238.87840327865905 401.4262600485456 246.32819145732878 386.23048378303315 283.6495009453287 322.813799549455C320.97081043332867 259.3971153158768 381.1857956908344 136.20076861697453 428.4350570776302 143.72330891508312C475.68431846442604 151.24584921319166 487.03652953386313 253.95613619309592 510.4459556019483 358.921992980376C533.8553816700334 463.8878497676561 577.6351953346625 608.3848286044235 540.8003022044383 647.5594214940271 "></path><path d="M499.40135851587456 363.02974790597113C520.4698419771511 457.49901901452324 559.8716742753174 587.546299967614 526.7202704581155 622.8034335682572C493.5688666409137 658.0605671689004 394.93228219378193 569.6582444873904 340.2746201933054 532.2639891890589C285.61695819282886 494.86973389072705 273.73642428674293 485.33842800520574 264.3634928558286 443.31100813626483C254.99056142491423 401.2835882673239 261.69537078571705 387.6073896283626 295.28454932491695 330.53237381814233C328.8737278641169 273.4573580079219 383.0672145958721 162.5806459789099 425.59154984398833 169.3509322472076C468.11588509210446 176.1212185155053 478.33287505459793 268.56047679741914 499.40135851587456 363.02974790597113C520.4698419771511 457.49901901452324 559.8716742753174 587.546299967614 526.7202704581155 622.8034335682572 "></path><path d="M488.3567614298008 367.1375028315664C507.0843022842689 451.1101882613905 542.1081532159723 566.7077713308045 512.6402387117928 598.0474456424873C483.1723242076134 629.3871199541702 395.49536025460736 550.8072775706057 346.91077180973934 517.5679395276443C298.3261833648713 484.32860148468285 287.7657087816838 475.8563295864417 279.4342141764266 438.49862303627185C271.1027195711694 401.1409164861021 277.06255011410525 388.9842954736921 306.9195977045052 338.2509480868296C336.77664529490517 287.5176006999671 384.94863350090975 188.96052334084527 422.7480426103464 194.97855557933212C460.547451719783 200.99658781781898 469.62922057533274 283.16481740174237 488.3567614298008 367.1375028315664C507.0843022842689 451.1101882613905 542.1081532159723 566.7077713308045 512.6402387117928 598.0474456424873 "></path><path d="M477.3121643437271 371.24537982747415C493.69876259138664 444.7214795785701 524.3446321566271 545.8693647643074 498.5602069654701 573.2915797870298C472.77578177431303 600.7137948097525 396.0584383154328 531.9564327241336 353.5469234261733 502.8720119365423C311.03540853691374 473.7875911489509 301.7949932766247 466.3743532379899 294.5049354970247 433.6863600065915C287.2148777174246 400.99836677519284 292.42972944249345 390.3613233893342 318.5546460840934 345.9696444258294C344.67956272569336 301.5779654623247 386.83005240594736 215.34052277309314 419.9045353767044 220.6063009817691C452.97901834746153 225.8720791904451 460.92556609606754 297.7692800763781 477.3121643437271 371.24537982747415C493.69876259138664 444.7214795785701 524.3446321566271 545.8693647643074 498.5602069654701 573.2915797870298 "></path><path d="M466.2675825164424 375.35319578822555C480.3132381572934 438.3327098605936 506.58112635607097 525.0308971626541 484.4801904779364 548.5356528964162C462.3792545998018 572.0404086301784 396.6215316350473 513.1055268425051 360.1830903013963 488.176023310284C323.74464896774526 463.24651977806286 315.8242930303547 456.892315854382 309.57567207641176 428.87403594175464C303.3270511224689 400.85575602912735 307.7969240296707 391.7382902698199 330.1897097224707 353.688279729673C352.58249541527067 315.6382691895261 388.7114865697741 241.7204611701847 417.0610434018516 246.23398534904987C445.410600233929 250.74750952791499 452.2219268755914 312.3736817158575 466.2675825164424 375.35319578822555C480.3132381572934 438.3327098605936 506.58112635607097 525.0308971626541 484.4801904779364 548.5356528964162 "></path><path d="M455.2229701715796 379.46101174897706C466.9276832056221 431.9439401426171 488.8175900379367 504.19242956100084 470.40014347282454 523.7797260058026C451.98269690771247 543.3670224506045 397.1845944370837 494.25462096087676 366.8192266590412 473.4800346840258C336.45385888099867 452.7054484071748 329.8535622665065 447.4102784707741 324.64637813822077 424.061711876918C319.439194009935 400.71314528306186 323.16408809926986 393.11525715030564 341.82474284326986 361.40691503351655C360.4853975872698 329.69857291672747 390.5928902160227 268.1003995672763 414.21752090942056 271.8616697163306C437.8421516028185 275.6229398653849 443.51825713753703 326.97808335533705 455.2229701715796 379.46101174897706C466.9276832056221 431.9439401426171 488.8175900379367 504.19242956100084 470.40014347282454 523.7797260058026 "></path><path d="M444.17838834429494 383.56881245093945C453.542158771529 425.5551551658515 471.05408423738066 483.3539467005585 456.3201269852909 499.02378385639986C441.58616973320125 514.6936210122414 397.7476877566982 475.4036998204591 373.4553935342642 458.7840307989784C349.1630993118302 442.1643617774977 343.8828620202364 437.9282258283771 339.71711471760784 419.2493725532922C335.55136741497927 400.5705192782073 338.5312826864471 394.4922087720023 353.45980648164715 369.12553507857103C368.3883302768471 343.75886138513977 392.4743243798494 294.4803227055789 411.3740289345677 297.4893388248223C430.27373348928603 300.49835494406574 434.8146179170609 341.5824697360274 444.17838834429494 383.56881245093945C453.542158771529 425.5551551658515 471.05408423738066 483.3539467005585 456.3201269852909 499.02378385639986 "></path><path d="M433.1337912582212 387.6765978941128C440.1566190786467 419.1663549302968 453.2905631780355 462.51544858132706 442.2400952389682 474.2678264482081C431.1896272999009 486.0202043150892 398.31076581752365 456.55276342125256 380.09154515069815 444.088011655142C361.87232448387266 431.62325988903143 357.9121465151773 428.446157927191 354.7878360382059 414.4370179708773C351.66352556123445 400.4278780145637 353.8984620148354 395.86914513490996 365.0948548612353 376.8441398648365C376.2912477076353 357.81913459476306 394.355743284887 320.8602305850924 408.53052170092576 323.1169926745249C422.7053001169645 325.3737547639575 426.1109634377957 356.18684085792876 433.1337912582212 387.6765978941128C440.1566190786467 419.1663549302968 453.2905631780355 462.51544858132706 442.2400952389682 474.2678264482081 "></path><path d="M422.0891941721475 391.7844138548643C426.7710793857645 412.7775852123203 435.52704211869036 441.6769809796738 428.16006349264546 449.51189955759446C420.7930848666006 457.3468181355152 398.8738438783491 437.7018575396241 386.7276967671321 429.3920230288837C374.58154965591507 421.08218851814337 371.9414310101182 418.9641205435831 369.8585573588039 409.62469390604065C367.77568370748963 400.28526726849816 369.2656413432236 397.2461120153957 376.72990324082355 384.56277516868005C384.19416513842356 371.8794383219644 396.2371621899247 347.24016898218395 405.68701446728386 348.7446770418057C415.13686674464304 350.2491851014274 417.40730895853045 370.79124249740823 422.0891941721475 391.7844138548643C426.7710793857645 412.7775852123203 435.52704211869036 441.6769809796738 428.16006349264546 449.51189955759446 "></path><path d="M411.04459708607374 395.8921992980376C413.3855396928822 406.3887849767656 417.7635210593452 420.83848286044235 414.08003174632273 424.7559421494027C410.3965424333003 428.67340143836304 399.43692193917457 418.85092114041754 393.36384838356605 414.69600388504733C387.29077482795753 410.5410866296771 385.9707155050591 409.482052642397 384.929278679402 404.8123393236258C383.8878418537448 400.14262600485455 384.6328206716118 398.62304837830334 388.3649516204118 392.2813799549455C392.09708256921175 385.9397115315877 398.11858109496234 373.62007686169744 402.84350723364196 374.3723308915083C407.5684333723215 375.1245849213192 408.7036544792652 385.3956136193096 411.04459708607374 395.8921992980376C413.3855396928822 406.3887849767656 417.7635210593452 420.83848286044235 414.08003174632273 424.7559421494027 "></path></g></svg>