<svg xmlns="http://www.w3.org/2000/svg" version="1.1" xmlns:xlink="http://www.w3.org/1999/xlink" xmlns:svgjs="http://svgjs.dev/svgjs" viewBox="0 0 800 800" opacity="0.35"><defs><linearGradient x1="50%" y1="0%" x2="50%" y2="100%" id="rrreflection-grad"><stop stop-color="hsla(55, 94%, 54%, 1.00)" stop-opacity="1" offset="45%"></stop><stop stop-color="hsla(0, 0%, 0%, 1.00)" stop-opacity="1" offset="100%"></stop></linearGradient><linearGradient x1="50%" y1="0%" x2="50%" y2="100%" id="rrreflection-grad-2"><stop stop-color="hsla(0, 0%, 0%, 1.00)" stop-opacity="1" offset="0%"></stop><stop stop-color="hsla(55, 94%, 54%, 1.00)" stop-opacity="1" offset="45%"></stop></linearGradient><linearGradient gradientTransform="rotate(270)" x1="50%" y1="0%" x2="50%" y2="100%" id="rrreflection-grad-3"><stop stop-color="hsla(55, 94%, 54%, 1.00)" stop-opacity="1" offset="45%"></stop><stop stop-color="hsla(0, 0%, 0%, 1.00)" stop-opacity="1" offset="100%"></stop></linearGradient><linearGradient gradientTransform="rotate(270)" x1="50%" y1="0%" x2="50%" y2="100%" id="rrreflection-grad-4"><stop stop-color="hsla(0, 0%, 0%, 1.00)" stop-opacity="1" offset="0%"></stop><stop stop-color="hsla(55, 94%, 54%, 1.00)" stop-opacity="1" offset="45%"></stop></linearGradient></defs><g stroke-width="0.5" stroke="url(#rrreflection-grad)" fill="none"><circle r="264" cx="50%" cy="0"></circle><circle r="253" cx="50%" cy="0"></circle><circle r="242" cx="50%" cy="0"></circle><circle r="231" cx="50%" cy="0"></circle><circle r="220" cx="50%" cy="0"></circle><circle r="209" cx="50%" cy="0"></circle><circle r="198" cx="50%" cy="0"></circle><circle r="187" cx="50%" cy="0"></circle><circle r="176" cx="50%" cy="0"></circle><circle r="165" cx="50%" cy="0"></circle><circle r="154" cx="50%" cy="0"></circle><circle r="143" cx="50%" cy="0"></circle><circle r="132" cx="50%" cy="0"></circle><circle r="121" cx="50%" cy="0"></circle><circle r="110" cx="50%" cy="0"></circle><circle r="99" cx="50%" cy="0"></circle><circle r="88" cx="50%" cy="0"></circle><circle r="77" cx="50%" cy="0"></circle><circle r="66" cx="50%" cy="0"></circle><circle r="55" cx="50%" cy="0"></circle><circle r="44" cx="50%" cy="0"></circle><circle r="33" cx="50%" cy="0"></circle><circle r="22" cx="50%" cy="0"></circle><circle r="11" cx="50%" cy="0"></circle></g><g stroke-width="0.5" stroke="url(#rrreflection-grad-2)" fill="none"><circle r="264" cx="50%" cy="100%"></circle><circle r="253" cx="50%" cy="100%"></circle><circle r="242" cx="50%" cy="100%"></circle><circle r="231" cx="50%" cy="100%"></circle><circle r="220" cx="50%" cy="100%"></circle><circle r="209" cx="50%" cy="100%"></circle><circle r="198" cx="50%" cy="100%"></circle><circle r="187" cx="50%" cy="100%"></circle><circle r="176" cx="50%" cy="100%"></circle><circle r="165" cx="50%" cy="100%"></circle><circle r="154" cx="50%" cy="100%"></circle><circle r="143" cx="50%" cy="100%"></circle><circle r="132" cx="50%" cy="100%"></circle><circle r="121" cx="50%" cy="100%"></circle><circle r="110" cx="50%" cy="100%"></circle><circle r="99" cx="50%" cy="100%"></circle><circle r="88" cx="50%" cy="100%"></circle><circle r="77" cx="50%" cy="100%"></circle><circle r="66" cx="50%" cy="100%"></circle><circle r="55" cx="50%" cy="100%"></circle><circle r="44" cx="50%" cy="100%"></circle><circle r="33" cx="50%" cy="100%"></circle><circle r="22" cx="50%" cy="100%"></circle><circle r="11" cx="50%" cy="100%"></circle></g><g stroke-width="0.5" stroke="url(#rrreflection-grad-3)" fill="none"><circle r="264" cx="0" cy="50%"></circle><circle r="253" cx="0" cy="50%"></circle><circle r="242" cx="0" cy="50%"></circle><circle r="231" cx="0" cy="50%"></circle><circle r="220" cx="0" cy="50%"></circle><circle r="209" cx="0" cy="50%"></circle><circle r="198" cx="0" cy="50%"></circle><circle r="187" cx="0" cy="50%"></circle><circle r="176" cx="0" cy="50%"></circle><circle r="165" cx="0" cy="50%"></circle><circle r="154" cx="0" cy="50%"></circle><circle r="143" cx="0" cy="50%"></circle><circle r="132" cx="0" cy="50%"></circle><circle r="121" cx="0" cy="50%"></circle><circle r="110" cx="0" cy="50%"></circle><circle r="99" cx="0" cy="50%"></circle><circle r="88" cx="0" cy="50%"></circle><circle r="77" cx="0" cy="50%"></circle><circle r="66" cx="0" cy="50%"></circle><circle r="55" cx="0" cy="50%"></circle><circle r="44" cx="0" cy="50%"></circle><circle r="33" cx="0" cy="50%"></circle><circle r="22" cx="0" cy="50%"></circle><circle r="11" cx="0" cy="50%"></circle></g><g stroke-width="0.5" stroke="url(#rrreflection-grad-4)" fill="none"><circle r="264" cx="100%" cy="50%"></circle><circle r="253" cx="100%" cy="50%"></circle><circle r="242" cx="100%" cy="50%"></circle><circle r="231" cx="100%" cy="50%"></circle><circle r="220" cx="100%" cy="50%"></circle><circle r="209" cx="100%" cy="50%"></circle><circle r="198" cx="100%" cy="50%"></circle><circle r="187" cx="100%" cy="50%"></circle><circle r="176" cx="100%" cy="50%"></circle><circle r="165" cx="100%" cy="50%"></circle><circle r="154" cx="100%" cy="50%"></circle><circle r="143" cx="100%" cy="50%"></circle><circle r="132" cx="100%" cy="50%"></circle><circle r="121" cx="100%" cy="50%"></circle><circle r="110" cx="100%" cy="50%"></circle><circle r="99" cx="100%" cy="50%"></circle><circle r="88" cx="100%" cy="50%"></circle><circle r="77" cx="100%" cy="50%"></circle><circle r="66" cx="100%" cy="50%"></circle><circle r="55" cx="100%" cy="50%"></circle><circle r="44" cx="100%" cy="50%"></circle><circle r="33" cx="100%" cy="50%"></circle><circle r="22" cx="100%" cy="50%"></circle><circle r="11" cx="100%" cy="50%"></circle></g></svg>